<svg width="288" height="93" viewBox="0 0 288 93" fill="none" xmlns="http://www.w3.org/2000/svg">
<path d="M276.329 92.0402C270.209 92.0402 265.289 87.1202 265.289 81.2402C265.289 75.2402 270.209 70.3202 276.329 70.3202C282.209 70.3202 287.369 75.2402 287.369 81.2402C287.369 87.1202 282.209 92.0402 276.329 92.0402Z" fill="#F34F13"/>
<path d="M218.792 92.0401C206.072 92.0401 198.152 84.6001 198.152 72.8401C198.152 61.8001 205.952 54.9601 220.352 53.8801L237.152 52.5601V51.6001C237.152 45.7201 233.552 42.6001 226.952 42.6001C219.152 42.6001 214.952 45.6001 214.952 51.0001H199.592C199.592 37.4401 210.752 28.5601 227.912 28.5601C245.312 28.5601 255.152 38.2801 255.152 55.4401V90.4801H238.832L237.632 82.5601C235.712 88.0801 227.792 92.0401 218.792 92.0401ZM225.272 78.3601C232.352 78.3601 237.272 74.8801 237.272 68.0401V64.8001L227.912 65.6401C219.872 66.3601 216.992 68.1601 216.992 72.0001C216.992 76.3201 219.632 78.3601 225.272 78.3601Z" fill="white"/>
<path d="M144.915 90.48H127.515V0H145.995V37.44C149.595 32.04 157.515 28.44 166.155 28.44C182.955 28.44 193.635 41.52 193.635 61.08C193.635 79.68 181.755 92.04 164.715 92.04C156.315 92.04 149.115 88.32 145.875 82.8L144.915 90.48ZM146.115 60.12C146.115 69.12 152.115 75.12 160.755 75.12C169.515 75.12 175.035 69 175.035 60.12C175.035 51.24 169.515 45.12 160.755 45.12C152.115 45.12 146.115 51.12 146.115 60.12Z" fill="white"/>
<path d="M98.767 30.4801H117.247V90.4801H99.847L98.647 83.7601C94.927 88.6801 87.487 92.0401 80.287 92.0401C66.607 92.0401 58.207 82.9201 58.207 68.1601V30.4801H76.687V61.4401C76.687 71.2801 80.047 75.6001 87.607 75.6001C95.527 75.6001 98.767 71.5201 98.767 61.6801V30.4801Z" fill="white"/>
<path d="M48.6646 90.48H30.1846V0H48.6646V90.48Z" fill="white"/>
<path d="M10.56 21.1201C4.68 21.1201 0 16.4401 0 10.5601C0 4.68012 4.68 0.120117 10.56 0.120117C16.32 0.120117 21 4.68012 21 10.5601C21 16.4401 16.32 21.1201 10.56 21.1201ZM1.44 90.4801V30.4801H19.92V90.4801H1.44Z" fill="white"/>
</svg>
